<svg width="7" height="13" viewBox="0 0 7 13" fill="none" xmlns="http://www.w3.org/2000/svg">
<path d="M6.79094 8.22191C6.79094 8.6896 6.67402 9.12923 6.44017 9.5408C6.21568 9.95237 5.87894 10.2985 5.42996 10.5791C4.99033 10.8597 4.46651 11.0281 3.85851 11.0842V12.2207H2.94651V11.0842C2.06725 11 1.35636 10.7241 0.813834 10.2564C0.271311 9.78868 4.93193e-05 9.17132 4.93193e-05 8.40431H1.7118C1.73986 8.76911 1.85679 9.07311 2.06257 9.31631C2.26836 9.55015 2.563 9.69982 2.94651 9.76529V6.67852C2.3198 6.51951 1.81002 6.36049 1.41716 6.20148C1.0243 6.03311 0.687557 5.7712 0.406942 5.41575C0.13568 5.06031 4.93193e-05 4.57391 4.93193e-05 3.95655C4.93193e-05 3.18018 0.271311 2.53945 0.813834 2.03434C1.35636 1.51988 2.06725 1.22055 2.94651 1.13637V-0.000123718H3.85851V1.13637C4.68165 1.2112 5.3411 1.47311 5.83685 1.92209C6.34196 2.36172 6.62725 2.96972 6.69273 3.74609H4.98097C4.95291 3.45612 4.84067 3.19889 4.64423 2.9744C4.4478 2.74055 4.1859 2.58154 3.85851 2.49735V5.528C4.48522 5.67766 4.995 5.83668 5.38787 6.00505C5.78073 6.16406 6.11279 6.42129 6.38405 6.77674C6.65531 7.12283 6.79094 7.60455 6.79094 8.22191ZM1.62762 3.87237C1.62762 4.25588 1.73986 4.5552 1.96436 4.77034C2.1982 4.98548 2.52559 5.15852 2.94651 5.28948V2.45526C2.5443 2.50203 2.22159 2.64701 1.97839 2.89022C1.74454 3.13341 1.62762 3.4608 1.62762 3.87237ZM3.85851 9.76529C4.27008 9.69982 4.59279 9.53612 4.82663 9.27422C5.06048 9.00295 5.1774 8.68025 5.1774 8.30609C5.1774 7.93194 5.06048 7.64197 4.82663 7.43618C4.60214 7.22105 4.27943 7.048 3.85851 6.91705V9.76529Z" fill="#333333"/>
</svg>
